<mxfile host="app.diagrams.net" modified="2024-04-01T11:13:46.016Z" agent="Mozilla/5.0 (Macintosh; Intel Mac OS X 10_15_7) AppleWebKit/537.36 (KHTML, like Gecko) Chrome/123.0.0.0 Safari/537.36" version="24.1.0" etag="R_SzEz_pMn5kZncZZn4K" type="github">
  <diagram name="第 1 页" id="vFKJrkcLS7L4MyfC-KSi">
    <mxGraphModel>
      <root>
        <mxCell id="0" />
        <mxCell id="1" parent="0" />
      </root>
    </mxGraphModel>
  </diagram>
</mxfile>
